<?xml version="1.0" encoding="UTF-8"?>
<svg version="1.1" viewBox="0 0 2048 858" width="439" height="184" xmlns="http://www.w3.org/2000/svg">

<path transform="translate(332,238)" d="m0 0 22 1 15 4 16 8 13 9 15 15 9 13 5 11 5 15 1 5 4-13 5-13 9-14 12-14 12-10 13-8 16-6 8-2 13-1h10l17 2 15 5 17 9 10 8 8 8 9 12 8 14 6 18 1 6v29l-3 15-5 12-6 11-8 10-9 10-13 10-16 8-14 4-13 2h-17l-18-3-16-5-16-10-12-11-9-11-6-9-7-14-5-15-3 9-5 14-7 13-11 12-4 5-13 10-17 9-19 5-8 1h-17l-18-3-15-5-15-9-9-7-10-10-10-15-6-14-4-13-2-13v-15l3-15 5-15 8-16 8-10 7-8 14-10 17-9 17-5z" fill="#7C4754"/>
<path transform="translate(433,422)" d="m0 0h13l19 1 11 7 15 7 19 5 6 1h29l18-4 16-6 14-8 4-1-1 169-3 7-4 5-10 3-49 1h-172l-63-1-10-2-6-5-3-7-1-8v-157l1-2 5 2 14 7 16 5 12 2h29l15-3 19-7 12-7 3-3z" fill="#7C4754"/>
<path transform="translate(680,417)" d="m0 0 8 1 6 4 4 7 1 6v143l-2 9-3 5-6 4-7 1-11-4-19-10-27-16-14-8-1-2v-100l9-6 44-26 13-7z" fill="#7C4754"/>
<path transform="translate(332,238)" d="m0 0 22 1 15 4 16 8 13 9 15 15 9 13 5 11 5 15 1 5 4-13 5-13 9-14 12-14 12-10 13-8 16-6 8-2 13-1h10l17 2 15 5 17 9 10 8 8 8 9 12 8 14 6 18 1 6v29l-3 15-5 12-6 11-8 10-2-1 2-4 7-11 3-5 3-9 2-9 3-10-1-22-1-6v-7l-2-1v-4l-6-8-6-11-3-5-3-7-7-9-4-1v-2l-9-3-3-3-5-2-7-4-17-5h-9l-5-1-15 2-20 5h-2l-1 2-9 3-1 2-9 5-8 7-3 6-9 12-1-3-2 4h-2l1 6-4 4v-3l-5 13-3 9-5 9-2 7h-1l-2-6-1-17-4-2-2-5-8-16-3-9-2-1 1 4-5-5-3-9-2-4-5-2-18-8-13-6-10-3h-22l-18 4-17 6-10 6-3 1v2l-8 5-6 2-7 11-1 7-3 5-7 14-3 12-2-1-3 12 2 17 6 17 4 9 4 13 2 2v3l2-1-3-4 1-4 6 10 8 8v2l4 1 2 2 10 2 5 3 9 2v1h-7l11 3 1 1h5l2-1 6 3 1 1 4-2 4 2 3 1 5-2h8l5-1h5l4 1 10-4h2v-3l7-3h3l5-5 6-2v-2l5-3 2-3h2l2-6 4-5 9-20 5-16 2-3 2-10 3 1v5h2l2 10h2l3 7v3l2 1 1 4 2 3 4 9v1l3 1 4 5-1 3 2 1v2h2l1 5 3 3-3-7h2l4 6 4 2v2l4 1v2l-5-1h-2l9 4 6-1 8 3 6 2-4 1h-4l14 3 9 4-4-3h7l6 2 15 1v1h5v-1h8l1-1h8l4-2h3 4v-2l9-5h4v-2l5-2v3l-14 9-12 5-17 4-7 1h-17l-18-3-16-5-16-10-12-11-9-11-6-9-7-14-5-15-3 9-5 14-7 13-11 12-4 5-13 10-17 9-19 5-8 1h-17l-18-3-15-5-15-9-9-7-10-10-10-15-6-14-4-13-2-13v-15l3-15 5-15 8-16 8-10 7-8 14-10 17-9 17-5z" fill="#955265"/>
<path transform="translate(334,294)" d="m0 0 10 1 13 4 8 6 5 6 6 11 2 7v11l-4 13-8 12-11 7-15 4-14-2-11-4-10-9-8-16-1-4v-14l5-12 7-9 7-6 10-4z" fill="#FDFDFD"/>
<path transform="translate(527,294)" d="m0 0 11 1 13 4 9 7 7 10 3 8 1 11-3 14-6 12-4 5-13 7-13 3-13-2-9-3-10-7-7-12-4-16 1-10 5-12 6-9 8-5 10-4z" fill="#FDFDFD"/>
<path transform="translate(433,422)" d="m0 0h13l19 1 11 7 15 7 19 5 6 1h29l18-4 16-6 14-8 4-1-1 169-3 7-4 5-10 3-49 1h-172v-1l-7-1 2-2 34-1 71-1h37l24 1 57-1h5l3-2v2l4-1 1-8 3-17 1-66v-41l-4-16-5-3-7-2-2-4-16 2-7 3-16 3h-16l-16-3-10-3-6-3-3-4v-2l-6-2-5-1-5 1-21-5 8 2v1l-6 1-11-3h-14l-8 2-5 3 2 3-28 9-6 1h-19l-10 2h-27l-1-1h-12l-15 4-7-1 1-7-9-3-1-2-3-1-1-14 5 2 14 7 16 5 12 2h29l15-3 19-7 12-7 3-3z" fill="#955265"/>
<path transform="translate(1754,317)" d="m0 0h17l9 4 8 6 7 10 3 8 1 4v18l-4 11-6 8-8 7-11 4h-16l-10-4-8-6-7-10-3-9-1-13 2-12 6-12 5-6 10-6z" fill="#965365"/>
<path transform="translate(1618,317)" d="m0 0h28l15 3 8 4 5 5 6 8 3 10v22l-4 10-6 8-11 7-7 2-8 1h-19l-10-1-1-11v-46z" fill="#965365"/>
<path transform="translate(1271,317)" d="m0 0h19l5 10 15 37 3 4 5-11 15-37 2-3h20v79h-16l-1-6-1-40-12 29-6 15-2 2h-9l-3-4-16-38-2-4-1 46h-15l-1-5v-73z" fill="#955265"/>
<path transform="translate(1019,317)" d="m0 0h32l10 2 8 4 5 6 3 7 1 12-2 8-5 6-5 4 4 9 9 17 1 4h-18l-9-16-6-10-11-1v27h-16l-1-1z" fill="#965365"/>
<path transform="translate(1416,317)" d="m0 0h18l12 6 5 6 4 7v4h-15l-8-7-4-1h-7l-6 3-1 2v6l6 4 21 6 9 6 5 8 1 10-3 8-5 6-9 5-12 2-13-1-9-4-8-7-3-6v-7l4-1h9l3 1 3 5v2l4 1h14l5-2 1-2v-8l-5-2-21-6-9-5-6-8-1-10 3-9 7-7z" fill="#965365"/>
<path transform="translate(1539,317)" d="m0 0h15l1 1 1 53 3 7 6 3h10l7-3 3-4 1-8 1-49h16v59l-3 9-8 7-8 4-4 1h-20l-12-6-7-8-3-9v-40z" fill="#955265"/>
<path transform="translate(954,317)" d="m0 0h51v14l-1 1h-34v17l33 1v13l-1 1-31 1-1 14 1 2 35 1v14l-17 1h-32l-4-1v-78z" fill="#955365"/>
<path transform="translate(680,417)" d="m0 0 8 1 6 4 4 7 1 6v28l-1 92-2-4v-47l-1-39 1-2-2-1-1-17-5-10-6 1-3-4h-6l-2 7 2 1-7 1v-7l-7 2-16 8-9 7-5 8-4 7-6 5-6 1-1 42v25l1 14 3 1 1 4 4 2 3 3 2-1 5 3 13 7 1 3h6l1 2h-3l4 2h7l2 2 4 1 15 1 2 4h3v-2h2v-2l5-3 1-10 1-3 2-3 1-5h1v19l-2 9-3 5-6 4-7 1-11-4-19-10-27-16-14-8-1-2v-100l9-6 44-26 13-7z" fill="#955265"/>
<path transform="translate(1117,317)" d="m0 0h50v15h-34v17l32 1v13l-1 1-30 1-1 31h-17v-78z" fill="#955265"/>
<path transform="translate(752,317)" d="m0 0h35v15h-34v16l3 1 28 1v13l-1 1h-30v15l-1 17h-16v-78z" fill="#955365"/>
<path transform="translate(1e3 480)" d="m0 0h14l9 2 8 6 5 10 1 4v18l-3 8-6 7-8 4-11 2h-9l-3-1-1-2v-57z" fill="#E8B55C"/>
<path transform="translate(1181,480)" d="m0 0 10 1 8 5 5 8 1 5v25l-4 8-7 6-7 2h-10l-8-5-4-5-3-10v-20l4-11 8-7z" fill="#E8B55C"/>
<path transform="translate(1464,317)" d="m0 0h63v14l-6 1h-17v63l-1 1h-16l-1-63-20-1-3-1v-13z" fill="#965365"/>
<path transform="translate(878,317)" d="m0 0h63v14l-7 1h-15l-1 64h-16l-1-64h-19l-4-1z" fill="#965365"/>
<path transform="translate(1329,480)" d="m0 0 29 1 8 4 4 8 1 10-3 6-6 5 3 10 7 13v3h-8l-5-2-8-16-3-5-6-1v24h-13l-1-59z" fill="#E8B55C"/>
<path transform="translate(830,317)" d="m0 0h15l1 1 1 63 32 1 1 13-1 1-20 1h-21l-8-1-1-28v-50z" fill="#965365"/>
<path transform="translate(1210,318)" d="m0 0h16l1 59 1 4 31 1 1 14-8 1h-40l-2-1z" fill="#955265"/>
<path transform="translate(1495,481)" d="m0 0h29l6 3 5 6 2 7v7l-4 7-6 4-11 2h-8v23h-12l-1-3z" fill="#E8B55C"/>
<path transform="translate(1757,332)" d="m0 0h11l9 6 4 7 1 5v14l-3 9-6 7-4 2h-13l-5-3-5-6-3-7v-18l4-8 8-7z" fill="#FDFDFD"/>
<path transform="translate(1576,481)" d="m0 0h13v23h15l1-23h12v59h-12l-1-28-15-1v29h-13z" fill="#E7B45C"/>
<path transform="translate(1427,481)" d="m0 0h10l4 9 12 37 3 13h-10l-3-1-2-8v-4h-18l-2 13h-14l13-41 5-16z" fill="#E7B45C"/>
<path transform="translate(1635,332)" d="m0 0h10l10 2 7 4 4 8 1 13-2 12-7 8-4 2-6 1h-11l-3-2v-47z" fill="#FDFDFD"/>
<path transform="translate(1179,317)" d="m0 0h16l1 2v77h-17z" fill="#955265"/>
<path transform="translate(1698,317)" d="m0 0h14v79h-17v-78z" fill="#965366"/>
<path transform="translate(1261,481)" d="m0 0h14l6 3 6 8 1 7-9-2-5-7-7-1-5 3-3 5-1 4v19l2 7 5 4h9l3-3 1-2 1-10-9 1-3-2v-5l2-1h20v19l-3 6-8 5-4 1h-12l-8-4-5-6-3-11v-18l3-10 7-8z" fill="#E8B55C"/>
<path transform="translate(1082,481)" d="m0 0h41v7l-27 1-1 15h13l12 1v6l-25 1v20h27l2 1v6l-9 1h-32z" fill="#E8B55C"/>
<path transform="translate(831,481)" d="m0 0h12l3 8 7 27v3h3l4-17 5-21h13l-4 16-11 37-3 6h-11l-3-5-12-41z" fill="#E8B55C"/>
<path transform="translate(805,317)" d="m0 0h10l1 1v19l-1 59h-16v-78z" fill="#955265"/>
<path transform="translate(919,481)" d="m0 0h36l-1 6-7 2h-3v41l6 2 5 2-1 5-1 1h-31l-3-1v-6l11-2v-31l-1-10-9-3-2-5z" fill="#E8B55C"/>
<path transform="translate(1701,480)" d="m0 0h2l-2 6-12 26-4 13v14l-1 1h-9l-2-1v-16l-5-14-13-27v-1h12l8 15 5 10 10-24 1-1z" fill="#E8B55C"/>
<path transform="translate(263,386)" d="m0 0 3 3 4 7 8 8v2l4 1 2 2 10 2 5 3 9 2v1h-7l11 3 1 1h5l2-1 6 3 1 1 4-2 4 2 3 1 5-2h8l5-1h5l4 1 10-4h2v-3l7-3h3l5-5 3-1 2 1v3l-14 9-13 6-16 4-8 1h-17l-18-3-15-5-15-9-9-7-10-10-4-6 1-2 5 3v3l2-1-3-4z" fill="#945264"/>
<path transform="translate(1181,488)" d="m0 0h7l5 5 2 8v21l-4 8-3 2h-7l-5-4-2-5-1-6v-13l2-10 4-5z" fill="#FDFDFD"/>
<path transform="translate(1013,488)" d="m0 0 8 1 6 4 3 7 1 6v11l-4 10-6 5h-9v-43z" fill="#FDFDFD"/>
<path transform="translate(487,335)" d="m0 0 3 1 4 16 8 13 10 6 17 4 12-2 10-4 8-5 7-12 2-6 4 1-1 4-2 9-5 5-1 5-3 2v-4h-2v2h-2v2h-2l-1 4-5 2-6 2-9 2h-13l-12-9-3-2h-5l-8-11-3-8-2-12z" fill="#955265"/>
<path transform="translate(332,290)" d="m0 0h13l3 1 7 1 6 2 5 2-3 1 3 2 3-1v2h-2v2h2l5 9 2 1 1 5 3 7 1 2v5h2v8l-2 3 1 4-2 5-1 6-2 2v-4l-3 5-4-1 2-5 3-6 2-8v-11l-4-11-6-10-7-6-8-4-12-3-10 1-11 3-5 2v-4l8-4 10-1z" fill="#945264"/>
<path transform="translate(295,328)" d="m0 0h1l1 13 4 11 6 10 8 7 11 4 14 2 15-4 11-7 4-5 1 4-4 8 3-1v2l-6 4h-4l-15 6h-15l-8-3-2-4-5-2-9-6-7-9-5-12-1-8h2z" fill="#965365"/>
<path transform="translate(1036,332)" d="m0 0h16l6 3 2 6v8l-3 4-4 1h-16l-2-6z" fill="#FDFDFD"/>
<path transform="translate(531,290)" d="m0 0h4l8 1 1 1h7l2 2 6 3 6 9 3 3 1 4 4 10 1 13-2 10h-3l1-15-2-10-5-10-6-7-8-5-11-3-11-1-14 4-11 5-1-2 5-5 9-4z" fill="#945264"/>
<path transform="translate(1342,489)" d="m0 0h14l3 2 1 3v10l-4 4-3 1h-10l-1-1z" fill="#FDFDFD"/>
<path transform="translate(1509,489)" d="m0 0h13l3 3 1 3v8l-4 5-9 1-5-2v-17z" fill="#FDFDFD"/>
<path transform="translate(830,317)" d="m0 0h15v61h-1v-59h-13v72h-1l-1-23v-50z" fill="#844A59"/>
<path transform="translate(288,603)" d="m0 0 44 1 7 1-1 2-4 1h-39l-3-2-5-1z" fill="#965366"/>
<path transform="translate(1432,494)" d="m0 0 2 4 4 16v5h-11l-1-3 5-17z" fill="#FDFDFD"/>
<path transform="translate(263,386)" d="m0 0 3 3 4 7 8 8v3h2v4h-3l-8-7-7-7-4-6 1-2 5 3v3l2-1-3-4z" fill="#8C4F5E"/>
<path transform="translate(282,441)" d="m0 0 9 2 3 2 10 2 10-1 2 2-13 4-10 1v-6l-8-3z" fill="#7C4754"/>
<path transform="translate(632,447)" d="m0 0 2 3-5 4-2 3h-2l-2 6-3 5-6 1-2-2 1-2 4-1 4-7 5-5z" fill="#7C4754"/>
<path transform="translate(280,441)" d="m0 0 5 2 9 4-1 6 13-3 6-2 5 1v1l-21 5-7-1 1-7-9-3z" fill="#965366"/>
<path transform="translate(390,440)" d="m0 0 4 1-2 2-13 5h-12l-2-2 10-1 11-4z" fill="#7C4754"/>
<path transform="translate(326,292)" d="m0 0 8 1v2l-15 4-5 2v-4l8-4z" fill="#935164"/>
<path transform="translate(268,277)" d="m0 0v3l-3 5-1 7-3 5-5 10h-2l2-7 3-4 1-9 4-6z" fill="#965366"/>
<path transform="translate(498,305)" d="m0 0 2 2-8 16-2 8-2-4 1-6 7-14z" fill="#935164"/>
<path transform="translate(615,377)" d="m0 0 1 3-7 11-5 6-2-1 2-4 8-12 3-1z" fill="#8D4E5F"/>
<path transform="translate(374,316)" d="m0 0 3 1 3 7 1 2-1 8 2 1-2 3-2-3-3-13-2-5z" fill="#925163"/>
<path transform="translate(568,346)" d="m0 0 4 1-1 4-2 9-3 1-1-7z" fill="#8F5061"/>
<path transform="translate(261,283)" d="m0 0 1 2-1 2-1 9-4 6-2 6h-2l3-9 2-4 1-8z" fill="#7C4754"/>
<path transform="translate(468,269)" d="m0 0 2 1-7 8-6 9-1-3 4-7h2v-2h2l1-5z" fill="#7C4754"/>
<path transform="translate(263,386)" d="m0 0 3 3 4 7 8 8-1 2-5-3-3-5-6-8z" fill="#965366"/>
<path transform="translate(561,447)" d="m0 0h9l1 2-2 1-14 1 3-3z" fill="#965366"/>
<path transform="translate(381,331)" d="m0 0h2v8l-3 3-2-2v-5l2 1z" fill="#965366"/>
<path transform="translate(608,387)" d="m0 0 2 3-6 7-2-1 2-4z" fill="#905062"/>
<path transform="translate(498,305)" d="m0 0 2 2-5 9h-2l1-5z" fill="#905062"/>
</svg>
