<svg xmlns="http://www.w3.org/2000/svg" version="1.0" viewBox="0 0 439 184"><g fill="#FFF" stroke-width="0"><path d="M0 92v92h439V0H0zm80.6-39.4C84.5 54.5 92 62.3 92 64.5c0 2.3 1.7 1.8 2.4-.8.8-3.2 7.2-9.6 11.2-11.3 8-3.3 18.6-.6 24.2 6.2 8.1 9.8 5.2 25-6.1 31.5-5 2.8-14.4 3.2-19.2.7-4-2.2-9.1-7.6-10.5-11.3l-1.2-3-1.4 3.5c-3.4 8-10 12.3-18.9 12.4-13.9.2-23.6-11.6-20.5-25.2 2.8-12.5 17.3-19.9 28.6-14.6M169 69.5c0 1-1.1 1.5-3.5 1.5-2.8 0-3.5.4-3.5 2s.7 2 3.5 2c2.4 0 3.5.5 3.5 1.5s-1.1 1.5-3.5 1.5c-3.3 0-3.5.2-3.5 3.5 0 3.1-.3 3.5-2.5 3.5-2.5 0-2.5-.1-2.5-8.5V68h6c4.7 0 6 .3 6 1.5m6 7c0 7.8-.2 8.5-2 8.5s-2-.7-2-8.5.2-8.5 2-8.5 2 .7 2 8.5m7-1.5v7h3.5c2.4 0 3.5.5 3.5 1.5 0 1.2-1.3 1.5-6 1.5h-6v-8.5c0-8.4 0-8.5 2.5-8.5 2.4 0 2.5.2 2.5 7m20-5.6c0 .8-1 1.6-2.2 1.8-2.1.3-2.3.9-2.6 7-.3 6-.5 6.8-2.2 6.8-1.8 0-2-.7-2-7 0-6.8-.1-7-2.5-7-1.6 0-2.5-.6-2.5-1.5 0-1.2 1.4-1.5 7-1.5 5.4 0 7 .3 7 1.4m14 0c0 1-1.3 1.6-3.7 1.8-2.7.2-3.9.8-4.1 2-.3 1.5.4 1.8 3.2 1.8 2.5 0 3.6.4 3.6 1.5 0 1-1.1 1.5-3.5 1.5-2.8 0-3.5.4-3.5 2 0 1.7.7 2 4 2 2.9 0 4 .4 4 1.5 0 1.2-1.3 1.5-6 1.5h-6V68h6c4.6 0 6 .3 6 1.4m13.1-.4c2.1 1.2 2.7 6.8.8 8.7-.8.8-.6 1.9.5 4.2 1.6 3.1 1.6 3.1-.8 3.1-1.8 0-3-.9-4.1-3-.9-1.7-2-3-2.5-3-.6 0-1 1.3-1 3 0 2.3-.4 3-2 3-1.8 0-2-.7-2-8.5V68h4.6c2.5 0 5.4.5 6.5 1m21.9.4c0 1-1.3 1.6-3.7 1.8-2.7.2-3.9.8-4.1 2-.3 1.5.4 1.8 3.2 1.8 2.5 0 3.6.4 3.6 1.5 0 1-1.1 1.5-3.5 1.5-3.3 0-3.5.2-3.5 3.5 0 2.8-.4 3.5-2 3.5-1.8 0-2-.7-2-8.5V68h6c4.6 0 6 .3 6 1.4m6 7.1c0 8.4 0 8.5-2.5 8.5s-2.5-.1-2.5-8.5 0-8.5 2.5-8.5 2.5.1 2.5 8.5m6-1.5v7h3.5c2.4 0 3.5.5 3.5 1.5 0 1.2-1.3 1.5-5.5 1.5H259v-8.5c0-7.8.2-8.5 2-8.5s2 .7 2 7m16.2-1.8 2.4 5.3 1.9-5.3c1.7-4.6 2.2-5.2 4.7-5.2h2.8v8.5c0 7.8-.2 8.5-2 8.5-1.7 0-2-.7-2.1-4.3l-.1-4.2-1.9 4.2c-1.1 2.4-2.7 4.3-3.5 4.3s-2.3-1.9-3.4-4.3l-1.9-4.2v4.2c-.1 3.6-.4 4.3-2.1 4.3-1.8 0-2-.7-2-8.5 0-8.3 0-8.5 2.4-8.5 2 0 2.9 1 4.8 5.2m31.2-3.6c.9.8 1.6 2 1.6 2.5 0 1.3-3.4 1.1-4.7-.2s-4.3-.5-4.3 1c0 .5 1.9 1.5 4.3 2.3 3.5 1.1 4.3 1.8 4.5 4.1.5 4.1-1.4 5.7-6.4 5.7-3.3 0-4.6-.5-5.9-2.3-1.5-2.1-1.4-2.2.5-2.5 1.2-.2 2.8.2 3.5.8 1.6 1.3 4.5.7 4.5-.9 0-.5-1.9-1.5-4.2-2.3-3.6-1.1-4.4-1.8-4.6-4.3-.3-1.9.2-3.3 1.4-4.2 2.4-1.8 7.9-1.6 9.8.3m17.6-.1c0 .9-.9 1.5-2.5 1.5-2.4 0-2.5.2-2.5 7s-.1 7-2.5 7-2.5-.2-2.5-7-.1-7-2.5-7c-1.6 0-2.5-.6-2.5-1.5 0-1.2 1.5-1.5 7.5-1.5s7.5.3 7.5 1.5m6 5c0 4.9.4 6.7 1.5 7.1 2.9 1.2 4.5-1.6 4.5-7.7 0-5.2.2-5.9 2-5.9s2 .7 2 6.7c0 8.3-1.5 10.3-7.6 10.3-5.8 0-7.4-2.4-7.4-10.7 0-6.1.1-6.3 2.5-6.3s2.5.2 2.5 6.5m24.4-4.4c2.1 1.6 2.6 2.9 2.6 6.4 0 6.2-2.6 8.5-9.7 8.5H346V68h4.9c3.4 0 5.6.6 7.5 2.1m8.6 6.4c0 7.8-.2 8.5-2 8.5s-2-.7-2-8.5.2-8.5 2-8.5 2 .7 2 8.5m16.5-6c3.1 3 3.3 8.2.4 11.9-2.6 3.3-8.8 3.7-11.9.6-2.9-2.9-2.8-10.2.2-13 3.1-2.8 8.3-2.6 11.3.5M148.9 90.4c.8.9 1.1 6.9.9 19.2l-.3 17.9-2.6.3c-1.6.2-5.2-1.2-9.7-3.8l-7.2-4.2V98l7.7-4.5c8.4-4.9 9.5-5.2 11.2-3.1m-45.2 2.2c4.3 2.2 6.3 2.6 11.1 2.2 3.1-.2 7.2-1.2 9.1-2.1s3.6-1.7 3.8-1.7c.1 0 .3 8.5.3 19 0 17.7-.1 19-1.9 20-2.7 1.4-62.5 1.4-65.2 0-1.8-1-1.9-2.3-1.9-20V91.1l4.3 1.9c5.9 2.7 13.2 2.6 18.7-.4 6.5-3.4 14.7-3.4 21.7 0m78.8 13.6.7 3.3.9-3.3c.7-2.2 1.6-3.2 2.9-3.2 1.1 0 2 .1 2 .2 0 .2-.9 3-1.9 6.3-1.4 4.4-2.4 6.1-3.8 6.3-1.7.2-2.3-.7-3.7-5.6-2-7.3-2-7.2.3-7.2 1.3 0 2.1 1 2.6 3.2M205 104c0 .5-.4 1-1 1-.5 0-1 2-1 4.5s.5 4.5 1 4.5c.6 0 1 .4 1 1 0 .5-1.8 1-4 1s-4-.5-4-1c0-.6.5-1 1-1 .6 0 1-2 1-4.5s-.4-4.5-1-4.5c-.5 0-1-.5-1-1 0-.6 1.8-1 4-1s4 .4 4 1m17.2.7c2.2 2 2.3 7 .1 9.5-.9 1-3 1.8-5 1.8H214v-13h3.2c1.7 0 4 .7 5 1.7m18.8-.7c0 .5-1.3 1-3 1q-3 0-3 1.5c0 .9.9 1.5 2.5 1.5 1.4 0 2.5.4 2.5 1 0 .5-1.1 1-2.5 1-1.8 0-2.5.5-2.5 2 0 1.6.7 2 3 2 1.7 0 3 .4 3 1 0 .5-2 1-4.5 1H232v-13h4.5c2.5 0 4.5.4 4.5 1m16.8.2c1.6 1.6 1.6 9 0 10.6-.7.7-2.4 1.2-3.8 1.2-3.7 0-5-1.8-5-6.5 0-2.3.5-4.6 1.2-5.3 1.5-1.5 6.1-1.5 7.6 0m18 0c.7.7 1.2 1.6 1.2 2 0 1.2-3.4 1-4.7-.3-1.5-1.5-2.7 2.3-1.9 5.7.7 2.6 2.6 3.3 2.6.9 0-.8-.4-1.5-1-1.5-.5 0-1-.5-1-1 0-.6 1.4-1 3-1 2.6 0 3 .3 3 2.9 0 1.7-.6 3.1-1.6 3.5-2.5 1-5.9.7-7.2-.6-1.6-1.6-1.6-9 0-10.6 1.5-1.5 6.1-1.5 7.6 0m18.2.7c1.1 2.1.4 5.1-1.1 5.1-.5 0-.3 1.3.6 3 1.5 2.8 1.5 3-.4 3-1.2 0-2.7-1.2-3.5-2.8l-1.5-2.7-.1 2.7c0 2.1-.5 2.8-2 2.8-1.8 0-2-.7-2-6.5V103h4.5c3.4 0 4.7.5 5.5 1.9m16.8 4.3c1.6 5.6 1.7 6.3.3 6.7-.8.2-1.7-.2-1.9-.8-.5-1.4-4.2-1.5-4.2-.1 0 .5-.9 1-1.9 1-1.9 0-1.9-.2.2-6.5 2.8-8.8 4.9-8.8 7.5-.3m18.6-4c1.4 2.3-.3 5.2-3.3 5.6-1.5.2-2.1 1-2.1 2.8 0 1.7-.5 2.4-2 2.4-1.8 0-2-.7-2-6.6v-6.5l4.1.3c2.7.2 4.6.9 5.3 2m11.6.3c0 1.6.6 2.5 1.5 2.5s1.5-.9 1.5-2.5.6-2.5 1.5-2.5c1.2 0 1.5 1.4 1.5 6.5s-.3 6.5-1.5 6.5q-1.5 0-1.5-3t-1.5-3-1.5 3c0 2.3-.4 3-2 3-1.8 0-2-.7-2-6.5s.2-6.5 2-6.5c1.5 0 2 .7 2 2.5m18-.8c1 1.7 1 1.7 2 0 .6-.9 2-1.7 3.1-1.7 1.9 0 1.9 0-.1 4-1.1 2.1-2 5.1-2 6.5 0 1.8-.5 2.5-2 2.5s-2-.7-2-2.5c0-1.4-.9-4.4-2-6.5-2-4-2-4-.1-4 1.1 0 2.5.8 3.1 1.7"/><path d="M69.4 64.1c-5.5 1.5-7.2 9.2-2.9 13.4 6.7 6.8 17.5-.9 13.1-9.3-1.8-3.6-5.9-5.2-10.2-4.1m41 .4c-4.1 1.7-5.8 5.7-4.4 10.1 1.3 3.9 3.5 5.4 8 5.4 7.1 0 10.4-8.8 5.5-14.8-1.1-1.3-6.6-1.8-9.1-.7m112.3 7.2c-.4.3-.7 1.5-.7 2.5 0 2.3 3.8 2.5 4.7.2.8-2.1-2.4-4.3-4-2.7M351 76.6c0 4 .4 5.4 1.4 5.4 2.2 0 4.6-2.8 4.6-5.3 0-2.9-1-4.3-3.7-4.9-2.2-.6-2.3-.3-2.3 4.8m24.6-4c-2.7 2.7-1.3 9.4 1.9 9.4 2.2 0 4.8-4.6 4-7-1-3.1-4-4.3-5.9-2.4M218 110.1c0 2.4.4 3.8 1 3.4.6-.3 1-2.2 1-4.1s-.4-3.4-1-3.4c-.5 0-1 1.8-1 4.1m34.4-2.7c-.7 2.9.4 6.9 1.7 6.1 1.2-.8 1.2-7.2-.1-8-.5-.3-1.2.5-1.6 1.9m35.6-.4c0 1.3.5 2 1.3 1.7.6-.2 1.2-1 1.2-1.7s-.6-1.5-1.2-1.8c-.8-.2-1.3.5-1.3 1.8"/></g><path fill="#E5CCCC" d="M181.3 75c0 4.1.2 5.8.4 3.7.2-2 .2-5.4 0-7.5-.2-2-.4-.3-.4 3.8m75.1 1.5c0 4.9.1 7.1.3 4.8s.2-6.4 0-9-.3-.8-.3 4.2m76.9-2.5c0 3.6.2 5 .4 3.2.2-1.7.2-4.7 0-6.5-.2-1.7-.4-.3-.4 3.3m-11 4.5c0 3.8.2 5.3.4 3.2.2-2 .2-5.2 0-7-.2-1.7-.4-.1-.4 3.8m28-1.5c0 3 .2 4.3.4 2.7.2-1.5.2-3.9 0-5.5-.2-1.5-.4-.2-.4 2.8M88.7 90.7c1.8.2 5 .2 7 0 2.1-.2.7-.4-3.2-.4-3.8 0-5.5.2-3.8.4m41.7 18.3c0 6.3.1 8.9.3 5.7.2-3.1.2-8.3 0-11.5-.2-3.1-.3-.5-.3 5.8m-52.1 21.7c8.7.2 22.7.2 31 0 8.4-.1 1.3-.3-15.8-.3s-23.9.2-15.2.3"/><path fill="#99997F" d="M171.3 77c0 4.7.2 6.6.4 4.2.2-2.3.2-6.1 0-8.5-.2-2.3-.4-.4-.4 4.3m33 0c0 4.7.2 6.6.4 4.2.2-2.3.2-6.1 0-8.5-.2-2.3-.4-.4-.4 4.3m35 0c0 4.7.2 6.6.4 4.2.2-2.3.2-6.1 0-8.5-.2-2.3-.4-.4-.4 4.3m20 0c0 4.7.2 6.6.4 4.2.2-2.3.2-6.1 0-8.5-.2-2.3-.4-.4-.4 4.3m13 0c0 4.7.2 6.6.4 4.2.2-2.3.2-6.1 0-8.5-.2-2.3-.4-.4-.4 4.3m71-2.5c0 3.3.2 4.5.4 2.7s.2-4.5 0-6-.4 0-.4 3.3m-150 4c0 3.8.2 5.3.4 3.2.2-2 .2-5.2 0-7-.2-1.7-.4-.1-.4 3.8m82 1.5c0 3 .2 4.3.4 2.7.2-1.5.2-3.9 0-5.5-.2-1.5-.4-.2-.4 2.8"/><path fill="#99667F" d="M174.3 77c0 4.7.2 6.6.4 4.2.2-2.3.2-6.1 0-8.5-.2-2.3-.4-.4-.4 4.3m88-1.5c0 3.8.2 5.3.4 3.2.2-2 .2-5.2 0-7-.2-1.7-.4-.1-.4 3.8m78-1c0 3.3.2 4.5.4 2.7s.2-4.5 0-6-.4 0-.4 3.3m-144 3.5c0 4.1.2 5.8.4 3.7.2-2 .2-5.4 0-7.5-.2-2-.4-.3-.4 3.8m-68.9 31c0 10.2.2 14.3.3 9.2.2-5 .2-13.4 0-18.5-.1-5-.3-.9-.3 9.3m22 0c0 9.1.2 12.8.3 8.2.2-4.5.2-11.9 0-16.5-.1-4.5-.3-.8-.3 8.3"/><path fill="#E5FFE5" d="M157.4 76.5c0 4.9.1 7.1.3 4.8s.2-6.4 0-9-.3-.8-.3 4.2m20 0c0 4.9.1 7.1.3 4.8s.2-6.4 0-9-.3-.8-.3 4.2m75 0c0 4.9.1 7.1.3 4.8s.2-6.4 0-9-.3-.8-.3 4.2m76.9-2c0 3.8.2 5.3.4 3.2.2-2 .2-5.2 0-7-.2-1.7-.4-.1-.4 3.8m17.1 2c0 4.9.1 7.1.3 4.8s.2-6.4 0-9-.3-.8-.3 4.2m-28.1 2c0 3.8.2 5.3.4 3.2.2-2 .2-5.2 0-7-.2-1.7-.4-.1-.4 3.8"/><path fill="#7F3366" d="M158.3 77c0 4.7.2 6.6.4 4.2.2-2.3.2-6.1 0-8.5-.2-2.3-.4-.4-.4 4.3m20 0c0 4.7.2 6.6.4 4.2.2-2.3.2-6.1 0-8.5-.2-2.3-.4-.4-.4 4.3m75 0c0 4.7.2 6.6.4 4.2.2-2.3.2-6.1 0-8.5-.2-2.3-.4-.4-.4 4.3m77-2c0 3.6.2 5 .4 3.2.2-1.7.2-4.7 0-6.5-.2-1.7-.4-.3-.4 3.3m17 2c0 4.7.2 6.6.4 4.2.2-2.3.2-6.1 0-8.5-.2-2.3-.4-.4-.4 4.3m-28 1c0 4.1.2 5.8.4 3.7.2-2 .2-5.4 0-7.5-.2-2-.4-.3-.4 3.8"/><g fill="#7F334C" stroke-width="0"><path d="M64.5 53.4C57.1 56.6 52 64.3 52 72.2c0 5.4 4 12.7 8.6 15.9 10.4 7.2 23.8 3.8 29.5-7.4 2.9-5.6 2.3-15-1.1-20.1-5.1-7.3-16.5-10.7-24.5-7.2m12.7 10.7c2.9 1.5 5 7.2 3.9 10.3-2.7 6.9-10.1 8.7-15.2 3.7-7.5-7.6 1.7-19.1 11.3-14M106 53.3c-8.8 4.7-12.1 9.8-12.1 18 0 6.4 1.1 9.5 5.1 14 9.1 10.5 26.2 8 32.5-4.6 3.1-6.4 3.2-10.8.1-17.4-3.3-7.1-8.7-10.6-17-11.1-3.9-.2-7 .2-8.6 1.1m14.5 12.6c2.4 2.6 2.7 3.5 2.2 6.8-1.6 9.7-14.4 11.3-17.6 2.1-1.2-3.5.6-8.9 3.6-10.7 3.6-2.1 8.7-1.3 11.8 1.8m182.3 3.5c-4.5 2.3-3.2 6.9 2.3 8.1 3.4.8 4.9 3.2 2.8 4.6-2.1 1.3-3.6 1.1-5.4-.7s-3-1.3-2.2 1c1.6 4.1 10.7 2.6 10.7-1.8 0-2.7-1.3-3.9-5.5-5.3-1.6-.5-3-1.6-3-2.4 0-1.8 4.2-2.4 6.1-.8 1.9 1.5 3.1.4 1.5-1.5-1.7-2-4.6-2.5-7.3-1.2m72.5-.3c-8 3-3.6 18.2 4.4 15.3 6.5-2.2 7-12.5.8-15-1.8-.7-3.9-.8-5.2-.3m6.9 4.4c1.7 3.8 0 7.9-3.5 8.3-3.7.5-5.7-1.4-5.7-5.2 0-3.9 1.5-5.6 5.2-5.6 2.1 0 3.2.7 4 2.5M159 77c0 4.7.4 8 1 8s1-1.6 1-3.5c0-3.2.2-3.5 3-3.5 1.7 0 3-.5 3-1 0-.6-1.3-1-3-1-2.5 0-3-.4-3-2.5 0-2.2.4-2.5 3.5-2.5 1.9 0 3.5-.5 3.5-1 0-.6-2-1-4.5-1H159zm13 0c0 4.7.4 8 1 8s1-3.3 1-8-.4-8-1-8-1 3.3-1 8m7 0v8h4.5c3.3 0 4.5-.4 4.5-1.5 0-1-1.1-1.5-3.5-1.5H181v-6.5c0-3.7-.4-6.5-1-6.5s-1 3.3-1 8m10-7c0 .5 1.1 1 2.5 1 2.4 0 2.5.2 2.5 7 0 4 .4 7 1 7s1-3 1-7c0-6.8.1-7 2.5-7 1.4 0 2.5-.5 2.5-1 0-.6-2.7-1-6-1s-6 .4-6 1m16 7v8h5c3.8 0 5-.4 5-1.5s-1.1-1.5-4-1.5c-3.3 0-4-.3-4-2 0-1.6.7-2 3.5-2 1.9 0 3.5-.5 3.5-1 0-.6-1.6-1-3.5-1-3.1 0-3.5-.3-3.5-2.5 0-2.3.4-2.5 4-2.5 2.2 0 4-.5 4-1 0-.6-2.2-1-5-1h-5zm14 0c0 4.7.4 8 1 8s1-1.4 1-3c0-2.5.4-3 2.4-3 1.7 0 2.7.9 3.6 3 .7 1.6 1.8 3 2.6 3 1 0 .8-.9-.7-3.4-1.7-2.9-1.8-3.4-.4-4 1.8-.7 2-5.7.3-7.4-.7-.7-3.1-1.2-5.5-1.2H219zm8.8-3.3c.3 1.7-.3 2.4-2.2 2.9-3.3.8-4.6-.1-4.6-3.2 0-2.2.4-2.5 3.3-2.2 2.4.2 3.3.8 3.5 2.5M240 77c0 4.7.4 8 1 8s1-1.6 1-3.5c0-3.3.2-3.5 3.5-3.5 1.9 0 3.5-.5 3.5-1 0-.6-1.6-1-3.5-1-3.1 0-3.5-.3-3.5-2.5 0-2.3.4-2.5 4-2.5 2.2 0 4-.5 4-1 0-.6-2.2-1-5-1h-5zm14 0c0 4.7.4 8 1 8s1-3.3 1-8-.4-8-1-8-1 3.3-1 8m6 0v8h4.5c3.3 0 4.5-.4 4.5-1.5 0-1-1.1-1.5-3.5-1.5H262v-6.5c0-3.7-.4-6.5-1-6.5s-1 3.3-1 8m13-.1c0 4.7.4 8.1 1 8.1s1-2.5 1-5.5.4-5.5.9-5.5c.4 0 1.6 2.1 2.6 4.7 1 2.7 2.1 5.2 2.5 5.6.4.5 1.7-1.7 3-4.7 1.2-3.1 2.6-5.6 3.1-5.6s.9 2.5.9 5.5.5 5.5 1 5.5c.6 0 1-3.3 1-8 0-7.1-.2-8-1.9-8-1.3 0-2.4 1.5-3.8 5.2-1.1 2.9-2.4 5.3-2.9 5.5s-1.8-2.1-2.9-4.9c-1.2-3.1-2.8-5.4-3.8-5.6-1.5-.3-1.7.6-1.7 7.7m41-6.9c0 .5 1.4 1 3 1h3v7c0 4 .4 7 1 7s1-3 1-7c0-6.8.1-7 2.5-7 1.4 0 2.5-.5 2.5-1 0-.6-2.8-1-6.5-1s-6.5.4-6.5 1m17 5.2c0 3.5.4 6.8.8 7.5 1.4 2.1 6 2.6 8.7.9 2.2-1.5 2.5-2.3 2.5-8.1 0-8.3-1.8-8.5-2.2-.3l-.3 6.3h-7l-.3-6.3c-.2-3.4-.7-6.2-1.2-6.2-.6 0-1 2.8-1 6.2m17 1.9v8.2l4.2-.6c5.1-.7 7.8-3.5 7.8-8.3 0-4.7-2.9-7.4-8-7.4h-4zm8.8-4.9c.7.7 1.2 2.6 1.2 4.3 0 3.8-1.6 5.5-5.2 5.5-2.7 0-2.8-.1-2.8-5.5s.1-5.5 2.8-5.5c1.5 0 3.3.5 4 1.2M364 77c0 4.7.4 8 1 8s1-3.3 1-8-.4-8-1-8-1 3.3-1 8M137.8 94.2l-6.8 4v21.4l7.3 3.9c11 5.8 10.8 6.1 10.5-15.2-.3-20.9-.1-20.6-11-14.1"/><path d="M83 93.3c-4.5 2.8-15.8 3.1-20.7.5L59 92.2v16.9c0 9.8.4 17.9 1 19 1 1.8 2.4 1.9 32.5 1.9 17.2 0 32-.3 32.9-.6 1.4-.5 1.6-3.2 1.6-18.9V92.2l-3.2 1.6c-5 2.5-16.2 2.2-21.5-.6-5.7-3-14.4-2.9-19.3.1"/></g><path fill="#CC99B2" d="M218.3 77c0 4.7.2 6.6.4 4.2.2-2.3.2-6.1 0-8.5-.2-2.3-.4-.4-.4 4.3m72 0c0 4.7.2 6.6.4 4.2.2-2.3.2-6.1 0-8.5-.2-2.3-.4-.4-.4 4.3m73 0c0 4.7.2 6.6.4 4.2.2-2.3.2-6.1 0-8.5-.2-2.3-.4-.4-.4 4.3"/><path fill="#966" d="M161.3 68.7c1.5.2 3.7.2 5 0 1.2-.2 0-.4-2.8-.4-2.7 0-3.8.2-2.2.4m30.5 0c1.7.2 4.7.2 6.5 0 1.7-.2.3-.4-3.3-.4s-5 .2-3.2.4m15.5 0c1.5.2 3.9.2 5.5 0 1.5-.2.2-.4-2.8-.4s-4.3.2-2.7.4m35 0c1.5.2 3.9.2 5.5 0 1.5-.2.2-.4-2.8-.4s-4.3.2-2.7.4m74.4 0c1.8.2 5 .2 7 0 2.1-.2.7-.4-3.2-.4-3.8 0-5.5.2-3.8.4m48 0c.7.5 1.4 4.2 1.6 8.8l.3 8v-8.4c-.1-6.6-.4-8.5-1.6-8.8-1.1-.3-1.1-.2-.3.4M287.3 80c0 3 .2 4.3.4 2.7.2-1.5.2-3.9 0-5.5-.2-1.5-.4-.2-.4 2.8"/><path fill="#E5CCB2" d="M320.3 109.5c0 3.8.2 5.3.4 3.2.2-2 .2-5.2 0-7-.2-1.7-.4-.1-.4 3.8m-121 0c0 2.7.2 3.8.4 2.2.2-1.5.2-3.7 0-5-.2-1.2-.4 0-.4 2.8"/><path fill="#FFFFE5" d="M284.3 109.5c0 3.8.2 5.3.4 3.2.2-2 .2-5.2 0-7-.2-1.7-.4-.1-.4 3.8m53 0c0 3.8.2 5.3.4 3.2.2-2 .2-5.2 0-7-.2-1.7-.4-.1-.4 3.8m-120.2.2c.1 5.3.6 4.9 1.1-1 .2-2 0-3.7-.4-3.7s-.8 2.1-.7 4.7"/><path fill="#E5CC7F" d="M214.3 109.5c0 3.8.2 5.3.4 3.2.2-2 .2-5.2 0-7-.2-1.7-.4-.1-.4 3.8m18 0c0 3.8.2 5.3.4 3.2.2-2 .2-5.2 0-7-.2-1.7-.4-.1-.4 3.8m114 0c0 3.8.2 5.3.4 3.2.2-2 .2-5.2 0-7-.2-1.7-.4-.1-.4 3.8"/><path fill="#C96" d="M179.2 104.6c.3 1 1.2 4 1.9 6.6.7 2.7 1.7 4.8 2.1 4.8s1.5-2.6 2.4-5.8c.9-3.1 1.8-6 2.1-6.5.2-.4 0-.7-.5-.7s-1.5 2-2.1 4.5c-1.4 5.6-2.7 5.7-3.6.5-.4-2.2-1.2-4.3-1.7-4.7-.7-.4-.9.1-.6 1.3m18.8-.6c0 .5.5 1 1 1 .6 0 1 2 1 4.5s-.4 4.5-1 4.5c-.5 0-1 .4-1 1 0 .5 1.4 1 3 1 1.7 0 3-.5 3-1 0-.6-.4-1-1-1-.5 0-1-2-1-4.5s.5-4.5 1-4.5c.6 0 1-.5 1-1 0-.6-1.3-1-3-1-1.6 0-3 .4-3 1m17 5.5c0 5.8.2 6.5 2 6.5 2.8 0 6-3.5 6-6.5s-3.2-6.5-6-6.5c-1.8 0-2 .7-2 6.5m5.5 0c0 3.4-.3 4-2.2 4.3-2.1.3-2.3-.1-2.3-4.3s.2-4.6 2.3-4.3c1.9.3 2.2.9 2.2 4.3m12.5 0v6.5h3.5c1.9 0 3.5-.5 3.5-1 0-.6-1.3-1-3-1-2.3 0-3-.4-3-2 0-1.5.7-2 2.5-2 1.4 0 2.5-.5 2.5-1 0-.6-1.1-1-2.5-1-1.6 0-2.5-.6-2.5-1.5q0-1.5 3-1.5c1.7 0 3-.5 3-1 0-.6-1.6-1-3.5-1H233zm18.8-5.4c-2.6 1.5-2.5 9.5.1 10.9 2.5 1.3 2.7 1.3 4.5-.6 2.9-2.8 1.2-11.5-2.2-11.4-.4 0-1.5.5-2.4 1.1m4.8 3.3c.9 3.8-.4 6.8-2.9 6.4-2.3-.3-3.5-4.3-2.3-7.4.9-2.4 4.5-1.7 5.2 1m13.2-3.3c-2.7 1.5-2.5 9.5.2 10.9 2.8 1.5 6-.4 6-3.5 0-1.8-.5-2.5-2-2.5-1.1 0-2 .4-2 1 0 .5.5 1 1 1 .6 0 1 .7 1 1.6 0 1-.7 1.4-2.2 1.2-2-.3-2.3-.9-2.3-4.3 0-3.7.2-4 2.8-4 3 .1 3.6-.9 1.1-1.9-1.9-.7-1.5-.8-3.6.5m16.3 5.6c.1 3.8.4 5.6.6 4 .5-3.4 3-3.5 4.5-.2.6 1.4 1.5 2.5 2 2.5s.2-1.3-.7-2.9c-.9-1.9-1.1-3.2-.5-3.6.6-.3 1-1.7 1-3 0-2.3-1.7-3.5-5.1-3.5-1.7 0-1.9.7-1.8 6.7m5.4-2.7c0 .8-1 1.6-2.2 1.8-1.8.3-2.3-.2-2.3-1.8s.5-2.1 2.3-1.8c1.2.2 2.2 1 2.2 1.8m12.8 2.5c-1.2 3.6-1.7 6.5-1.2 6.5s.9-.7.9-1.5q0-1.5 3-1.5t3 1.5c0 .8.4 1.5.9 1.5s0-2.9-1.2-6.5-2.4-6.5-2.7-6.5-1.5 2.9-2.7 6.5m4.1-.9c.9 2.3.8 2.4-1.3 2.4-1.4 0-1.8-.5-1.4-2 .6-2.4 1.9-2.6 2.7-.4m12.6.9c0 3.7.4 6.5 1 6.5s1-1 1-2.3c0-1.6.9-2.6 3-3.4 5.2-2 3.1-7.3-2.9-7.3-1.9 0-2.1.6-2.1 6.5m6.5-2.5c0 .8-1 1.6-2.2 1.8-1.8.3-2.3-.2-2.3-1.8s.5-2.1 2.3-1.8c1.2.2 2.2 1 2.2 1.8m11.8 2.5c0 3.8.2 5.5.4 3.7.4-2.6.9-3.2 2.8-3.2s2.4.6 2.8 3.2c.2 1.8.4.1.4-3.7 0-3.9-.2-5.8-.4-4.3-.3 2.2-1 2.8-2.8 2.8s-2.5-.6-2.8-2.8c-.2-1.5-.4.4-.4 4.3m16.7-6.1c0 .2.7 2 1.5 3.9.8 2 1.5 4.8 1.5 6.2s.5 2.5 1 2.5c.6 0 1-1.1 1-2.4s.7-4 1.6-6.1c.8-2 1.3-4 1-4.3s-1.1.9-1.7 2.6c-1.4 4-2.4 4-3.8.2-.8-2.5-2.1-4.1-2.1-2.6"/><path fill="#CC6" d="M285.3 109.5c0 3.8.2 5.3.4 3.2.2-2 .2-5.2 0-7-.2-1.7-.4-.1-.4 3.8m53 0c0 3.8.2 5.3.4 3.2.2-2 .2-5.2 0-7-.2-1.7-.4-.1-.4 3.8m-122 0c0 2.7.2 3.8.4 2.2.2-1.5.2-3.7 0-5-.2-1.2-.4 0-.4 2.8"/><path fill="#E5FFCC" d="M202.3 109.5c0 2.7.2 3.8.4 2.2.2-1.5.2-3.7 0-5-.2-1.2-.4 0-.4 2.8"/></svg>